<svg width="145" height="20" viewBox="0 0 145 20" fill="none" xmlns="http://www.w3.org/2000/svg">
<path d="M26.1569 2.65083C24.7105 2.65083 23.3572 3.09151 22.1327 3.95931C21.0776 4.70677 20.1562 5.76439 19.4686 7.01693C19.0588 7.7627 16.8062 12.7305 16.5521 13.2898C15.3463 15.9203 12.7939 17.5695 9.87237 17.6203C5.82623 17.6915 2.4711 14.6237 2.20012 10.5847C1.90542 6.18473 5.39774 2.51015 9.73349 2.51015C12.3705 2.51015 14.8009 3.89321 16.1643 6.10338C16.4556 6.57626 17.045 6.76778 17.5497 6.53897C18.151 6.26778 18.3745 5.5288 18.0273 4.96778C16.2727 2.11185 13.136 0.325409 9.73349 0.325409C4.37816 0.325409 0.0186894 4.67626 5.91929e-05 10.0305C-0.018571 15.3847 4.36291 19.8068 9.73349 19.8068C11.6355 19.8068 13.4646 19.2729 15.0262 18.2644C16.5572 17.2746 17.7716 15.8712 18.5388 14.1983C19.5279 12.0135 21.1013 8.57965 21.3808 8.07117C21.9261 7.07965 23.5131 4.74575 26.3211 4.84066C29.1292 4.93558 31.2022 7.05931 31.3716 9.73049C31.563 12.7661 29.1495 15.2983 26.1569 15.2983C24.7257 15.2983 23.3742 14.7135 22.3969 13.7017C22.0311 13.3237 21.4434 13.2712 21.0081 13.5678C20.4492 13.9491 20.3646 14.7424 20.8354 15.2288C22.2191 16.6576 24.1312 17.483 26.1552 17.483C30.2403 17.483 33.5632 14.1576 33.5632 10.0695C33.5632 5.98134 30.2403 2.65592 26.1552 2.65592L26.1569 2.65083Z" fill="#161616"/>
<path d="M40.4006 2.72203V19.7763H42.8615V11.0712H53.0692V8.85932H42.8615V2.45084H54.1887V0.183044H42.936C41.5354 0.183044 40.3989 1.32033 40.3989 2.72203H40.4006Z" fill="#161616"/>
<path d="M57.2134 0C56.8171 0 56.48 0.138983 56.2023 0.416949C55.9245 0.694915 55.7856 1.0322 55.7856 1.42881C55.7856 1.82542 55.9245 2.15932 56.2023 2.42881C56.48 2.69831 56.8171 2.8339 57.2134 2.8339C57.6097 2.8339 57.9467 2.7 58.2245 2.42881C58.5023 2.15932 58.6411 1.82542 58.6411 1.42881C58.6411 1.0322 58.5023 0.694915 58.2245 0.416949C57.9467 0.138983 57.6097 0 57.2134 0Z" fill="#161616"/>
<path d="M58.3618 4.94238H55.9839V19.7763H58.3618V4.94238Z" fill="#161616"/>
<path d="M69.1604 4.88644C67.6869 4.66271 66.4234 4.82203 65.37 5.36271C64.3165 5.90339 63.5561 6.7339 63.0903 7.85424V4.94407H60.7124V19.778H63.0903V12.3051C63.0903 10.4576 63.6814 9.07288 64.8669 8.14915C66.0508 7.22542 67.4819 6.97796 69.1604 7.40678V4.88813V4.88644Z" fill="#161616"/>
<path d="M81.624 6.57965C80.2166 5.32033 78.5703 4.68982 76.687 4.68982C74.5801 4.68982 72.7848 5.43219 71.3029 6.91524C69.8209 8.39829 69.0791 10.2034 69.0791 12.3305C69.0791 14.4576 69.8158 16.2441 71.2893 17.7458C72.7628 19.2475 74.5615 19.9983 76.687 19.9983C78.1232 19.9983 79.4798 19.6305 80.7569 18.8932C82.0339 18.1559 82.9705 17.1813 83.5683 15.9678L81.414 15.4644C80.8923 16.1915 80.2115 16.7712 79.3714 17.2C78.5331 17.6288 77.6371 17.8441 76.687 17.8441C75.3067 17.8441 74.1228 17.4152 73.1354 16.5559C72.1463 15.6983 71.5874 14.578 71.457 13.1966H84.1543C84.2661 12.6373 84.2559 11.9932 84.1272 11.2661C83.8664 9.39999 83.0314 7.83728 81.624 6.57796V6.57965ZM71.457 11.3237C71.606 10.0542 72.17 8.98643 73.149 8.11863C74.1279 7.25084 75.2982 6.81694 76.6582 6.81694C78.0182 6.81694 79.1513 7.25084 80.1116 8.11863C81.0719 8.98643 81.6359 10.0542 81.8035 11.3237H71.4553H71.457Z" fill="#161616"/>
<path d="M112.405 4.68982C110.298 4.68982 108.507 5.43558 107.034 6.9288C105.56 8.42202 104.824 10.222 104.824 12.3305C104.824 14.439 105.56 16.2441 107.034 17.7458C108.507 19.2475 110.296 19.9983 112.405 19.9983C114.513 19.9983 116.307 19.2475 117.789 17.7458C119.271 16.2441 120.012 14.439 120.012 12.3305C120.012 10.222 119.271 8.44406 117.789 6.94236C116.307 5.44067 114.511 4.68982 112.405 4.68982ZM116.222 16.1932C115.187 17.2576 113.915 17.7881 112.405 17.7881C110.894 17.7881 109.649 17.261 108.614 16.2068C107.579 15.1525 107.061 13.861 107.061 12.3305C107.061 10.8 107.579 9.53219 108.614 8.46779C109.649 7.40338 110.912 6.87287 112.405 6.87287C113.897 6.87287 115.164 7.40507 116.208 8.46779C117.252 9.53219 117.775 10.8186 117.775 12.3305C117.775 13.8424 117.257 15.1288 116.222 16.1932Z" fill="#161616"/>
<path d="M126.365 5.36101C125.312 5.90169 124.551 6.7322 124.086 7.85254V4.94237H121.708V19.7763H124.086V12.3034C124.086 10.4559 124.677 9.07118 125.862 8.14746C127.046 7.22373 128.477 6.97627 130.156 7.40508V4.88644C128.682 4.66271 127.419 4.82203 126.365 5.36271V5.36101Z" fill="#161616"/>
<path d="M138.106 11.6864L144.426 4.94237H141.574L133.799 13.283V0.183044H131.421V19.7763H133.799V16.2491L136.651 13.2271L141.881 19.7763H144.706L138.106 11.6864Z" fill="#161616"/>
<path d="M98.7655 16.5305L95.6492 5.14067L94.4941 5.14914L93.3492 5.14067L90.26 16.6203L86.7931 5.12202H84.4016L89.071 19.9271H91.4845L94.4941 9.36609L97.5579 19.9271H99.968L104.654 5.08304H102.241L98.7655 16.5305Z" fill="#161616"/>
</svg>
