<svg xmlns="http://www.w3.org/2000/svg" width="145" height="26" viewBox="0 0 145 26" fill="none">
<path d="M78.6983 24.2493H97.2391V21.9844H81.876V14.7391H93.4143V12.4453H81.876V5.76622H97.2391V3.51289H78.6983V24.2493Z" fill="#FFFFFF"/>
<path d="M88.3297 0.161766L85.8221 2.98132L93.703 0.161766H88.3297Z" fill="#FFFFFF"/>
<path d="M128.37 21.9844V3.51289H125.47V24.2493H144.219V21.9844H128.37Z" fill="#FFFFFF"/>
<path d="M109.257 3.51289L98.7124 24.2493H102.277L104.976 18.8818H117.623L120.344 24.2493H123.875L113.319 3.51289H109.257ZM106.304 16.2818L111.273 6.37867L116.3 16.2818H106.304Z" fill="#FFFFFF"/>
<path d="M68.633 15.5769C73.3823 14.3116 73.8446 10.7756 73.8214 9.51022C73.5383 5.80667 71.0423 3.51289 66.5588 3.51289H53.4894V24.2493H56.4708V15.548H64.9814L71.2446 24.2493H75.0001C75.0001 24.2493 70.4935 18.3964 68.6446 15.5769M56.465 13.0982V5.96267H66.4894C68.7948 5.96267 70.0948 7.03733 70.5628 8.40667C70.8748 9.34267 70.6726 10.5733 70.1641 11.4169C69.3263 12.8036 67.7374 13.0982 66.1543 13.0982H56.465Z" fill="#FFFFFF"/>
<path d="M35.5787 0C27.1662 0 21.4347 5.928 21.4347 13.1098C21.4347 20.6671 27.7671 26 35.5787 26C43.3903 26 49.7169 20.7422 49.7169 13.1098C49.7169 5.93378 43.9102 0 35.5787 0ZM35.4805 23.4231C29.6622 23.4231 24.8667 18.7489 24.8667 13.1156C24.8667 7.48222 29.4369 2.58844 35.7058 2.58844C41.9747 2.58844 46.3196 7.488 46.3196 13.1156C46.3196 18.7431 41.2987 23.4231 35.4805 23.4231Z" fill="#FFFFFF"/>
<path d="M13.9295 10.8507H16.0788L19.9846 3.51289H16.8415L13.9295 10.8507Z" fill="#FFFFFF"/>
<path d="M3.41961 21.9844V3.51289H0.519165V24.2493H19.2623V21.9844H3.41961Z" fill="#FFFFFF"/>
</svg>