<svg xmlns="http://www.w3.org/2000/svg" width="149" height="40" viewBox="0 0 149 40" fill="none">
<path d="M34.8126 10.6792C34.9348 10.3963 35.0102 10.2448 35.0692 10.0851C36.1731 7.05211 37.2687 4.01506 38.3828 0.986089C38.7901 -0.121233 38.621 0.0242546 39.7778 0.0202133C41.6087 0.0121306 43.4375 0.0181926 45.2684 0.0202133C45.4497 0.0202133 45.6309 0.0222339 45.8122 0.0282959C46.0505 0.0363786 46.1849 0.151556 46.1889 0.398077C46.191 0.557709 46.1951 0.717341 46.1951 0.876974C46.1951 6.19737 46.1951 11.5158 46.1951 16.8362C46.1951 17.0524 46.1951 17.2686 46.1951 17.4585C45.6513 17.6929 42.1606 17.7232 41.4091 17.4989C41.3541 16.2421 41.3928 14.9549 41.3867 13.6698C41.3806 12.3543 41.3867 11.0409 41.3867 9.72545C41.3867 8.41 41.3867 7.13698 41.3867 5.84174C41.3623 5.83366 41.3399 5.82557 41.3154 5.81749C41.124 6.3267 40.9325 6.83388 40.7431 7.34511C39.5518 10.558 38.3644 13.7728 37.171 16.9877C36.9327 17.6323 36.9164 17.6424 36.2138 17.6464C35.2892 17.6525 34.3626 17.6505 33.438 17.6464C32.6274 17.6424 32.6254 17.6384 32.3525 16.9028C31.0246 13.3141 29.6968 9.72747 28.3689 6.13878C28.3424 6.06805 28.3139 5.99935 28.1938 5.93469C28.1938 6.1024 28.1938 6.27012 28.1938 6.43783C28.1938 9.86487 28.1938 13.2919 28.1938 16.719C28.1938 17.6343 28.1816 17.6464 27.2488 17.6485C26.1837 17.6505 25.1165 17.6545 24.0514 17.6464C23.3875 17.6404 23.3182 17.5757 23.3162 16.9291C23.3121 11.5299 23.3121 6.13069 23.3162 0.731486C23.3162 0.0727504 23.3712 0.0282959 24.0514 0.0262753C26.1226 0.0242546 28.1938 0.0242546 30.265 0.0262753C30.878 0.0262753 30.8861 0.034358 31.0918 0.594081C32.214 3.64326 33.3321 6.69244 34.4522 9.73959C34.552 10.0144 34.6599 10.2852 34.8126 10.6853V10.6792Z" fill="#FFFFFF"/>
<path d="M141.317 10.2225V0.113164C141.515 0.0767918 141.666 0.0242546 141.818 0.0242546C143.065 0.0181926 144.311 0.0141513 145.557 0.0242546C146.073 0.0282959 146.12 0.0727504 146.12 0.569833C146.124 6.10644 146.12 11.6431 146.12 17.1797C146.12 17.2767 146.103 17.3757 146.087 17.5393C145.855 17.5757 145.627 17.6384 145.399 17.6404C143.93 17.6505 142.464 17.6303 140.996 17.6525C140.495 17.6606 140.187 17.4727 139.914 17.0625C137.786 13.8496 135.637 10.6509 133.493 7.44816C133.387 7.29055 133.271 7.139 133.071 6.86419V17.4787C132.527 17.6869 129.008 17.7151 128.306 17.5171C128.293 17.3474 128.267 17.1574 128.267 16.9655C128.265 11.5481 128.267 6.13271 128.267 0.715321C128.267 0.654701 128.267 0.596102 128.267 0.535482C128.289 0.0828537 128.326 0.0464819 128.805 0.0222339C128.904 0.0181926 129.006 0.0202133 129.106 0.0202133C130.593 0.0202133 132.081 0.0424405 133.568 0.0080893C134.094 -0.00403467 134.409 0.165701 134.698 0.600143C136.747 3.67357 138.82 6.72881 140.888 9.79011C140.987 9.93762 141.089 10.0851 141.191 10.2326C141.232 10.2286 141.27 10.2266 141.311 10.2225H141.317Z" fill="#FFFFFF"/>
<path d="M97.3864 39.8899C97.034 39.9404 96.8263 39.9929 96.6186 39.995C95.0708 40.003 93.523 39.9909 91.9732 40.003C91.5536 40.0071 91.2665 39.8474 90.9936 39.5342C89.5028 37.8086 87.9693 36.1213 86.5029 34.3755C85.9999 33.7774 85.4134 33.8966 84.8064 33.9411C84.7148 33.9471 84.5885 34.1108 84.558 34.2239C84.5111 34.3917 84.5315 34.5796 84.5315 34.7574C84.5315 36.2123 84.5315 37.6651 84.5315 39.12C84.5315 39.2999 84.5539 39.4898 84.4969 39.6514C84.4521 39.7767 84.3156 39.8959 84.1894 39.9566C84.0713 40.0131 83.9144 39.995 83.7739 39.995C82.6273 39.997 81.4807 40.001 80.3362 39.995C79.6173 39.9909 79.5664 39.9384 79.5643 39.1948C79.5602 37.3822 79.5643 35.5697 79.5643 33.7572C79.5643 30.3503 79.5643 26.9455 79.5643 23.5387C79.5643 23.4195 79.5643 23.3003 79.5643 23.181C79.5765 22.4152 79.6152 22.3748 80.3891 22.3748C83.6069 22.3748 86.8227 22.3566 90.0405 22.3849C91.3826 22.397 92.6656 22.6941 93.8102 23.4518C95.1828 24.3591 95.9343 25.6301 96.1624 27.2385C96.3803 28.7702 96.0707 30.1705 95.1624 31.4253C94.4496 32.4114 93.4741 33.058 92.3194 33.448C92.1483 33.5046 91.9793 33.5672 91.8102 33.6279C91.796 33.6339 91.7899 33.6582 91.7451 33.7269C93.5535 35.7637 95.472 37.7298 97.3843 39.8899H97.3864ZM87.3501 29.8209C87.3501 29.8088 87.3501 29.7967 87.3501 29.7866C88.1525 29.7866 88.959 29.8229 89.7594 29.7765C90.6025 29.728 91.183 29.1521 91.2502 28.4004C91.3296 27.5154 90.9141 26.9071 90.0405 26.6626C89.8103 26.598 89.568 26.5495 89.3317 26.5475C87.9061 26.5374 86.4805 26.5374 85.0529 26.5434C84.5947 26.5454 84.5458 26.6 84.5376 27.0728C84.5275 27.77 84.5295 28.4651 84.5376 29.1622C84.5437 29.7704 84.5845 29.8149 85.1812 29.8209C85.9042 29.829 86.6272 29.8209 87.3501 29.8209Z" fill="#FFFFFF"/>
<path d="M72.3813 17.5575C72.0901 17.5939 71.8946 17.6363 71.697 17.6384C70.5301 17.6444 69.3652 17.6485 68.1982 17.6384C67.5302 17.6323 67.465 17.5697 67.465 16.921C67.463 11.5238 67.465 6.12665 67.465 0.729465C67.465 0.59004 67.4406 0.432428 67.4997 0.31725C67.5608 0.196011 67.6931 0.0767918 67.8214 0.0323372C67.966 -0.0181793 68.1391 0.0121306 68.3 0.0121306C71.416 0.0121306 74.5319 0.0141513 77.6479 0.0121306C78.4768 0.0121306 79.2873 0.13135 80.0836 0.351602C82.5051 1.02448 84.0407 3.06939 84.0977 5.5548C84.1588 8.27664 82.5112 10.3579 80.1101 11.1116C79.9594 11.1581 79.8169 11.2268 79.5847 11.3198C79.7293 11.5036 79.8352 11.6592 79.9615 11.7946C81.4991 13.4516 83.0387 15.1045 84.5763 16.7614C84.7759 16.9776 84.9592 17.208 85.2362 17.5333C84.9164 17.5818 84.7107 17.6363 84.5071 17.6384C82.9593 17.6464 81.4115 17.6303 79.8637 17.6485C79.3871 17.6545 79.0817 17.4403 78.7904 17.1069C77.3363 15.4318 75.87 13.7648 74.4098 12.0937C73.976 11.5966 73.2326 11.3682 72.6359 11.5865C72.532 11.6249 72.4343 11.7683 72.4017 11.8815C72.361 12.029 72.3854 12.1967 72.3854 12.3564C72.3854 13.8496 72.3854 15.3429 72.3854 16.8382C72.3854 17.0544 72.3854 17.2706 72.3854 17.5575H72.3813ZM75.1612 7.44614C75.1612 7.44614 75.1612 7.43604 75.1612 7.42998C75.9637 7.42998 76.7681 7.46029 77.5685 7.4219C78.5603 7.3734 79.2324 6.60959 79.155 5.69221C79.0837 4.84757 78.3933 4.21511 77.4198 4.1949C75.8964 4.16257 74.3711 4.18076 72.8457 4.18682C72.4424 4.18682 72.3895 4.24137 72.3834 4.63338C72.3711 5.40932 72.3732 6.18323 72.3834 6.95917C72.3895 7.38957 72.4343 7.43604 72.8762 7.4421C73.6379 7.45423 74.4016 7.44614 75.1633 7.44614H75.1612Z" fill="#FFFFFF"/>
<path d="M38.3074 26.5394C38.0039 26.5394 37.7473 26.5394 37.4907 26.5394C34.7169 26.5394 31.9411 26.5394 29.1673 26.5394C29.0267 26.5394 28.8862 26.5454 28.7457 26.5394C28.4524 26.5272 28.2854 26.6485 28.2875 26.9536C28.2875 27.5315 28.2875 28.1094 28.2915 28.6853C28.2915 28.9581 28.4463 29.0773 28.7151 29.0733C28.876 29.0713 29.0369 29.0753 29.1978 29.0753C31.8311 29.0753 34.4664 29.0753 37.0997 29.0753C37.2606 29.0753 37.4215 29.0713 37.5824 29.0773C38.063 29.0975 38.1547 29.1642 38.1689 29.633C38.1913 30.3099 38.1832 30.9868 38.1791 31.6638C38.1771 32.1548 38.1608 32.6478 38.1485 33.1954C37.8308 33.2116 37.5966 33.2318 37.3624 33.2338C34.6273 33.2358 31.8942 33.2338 29.1591 33.2338C28.9982 33.2338 28.8373 33.2338 28.6764 33.2379C28.4341 33.2379 28.2976 33.3611 28.2936 33.6016C28.2875 34.1997 28.2895 34.7958 28.2936 35.3939C28.2936 35.6647 28.4504 35.7879 28.7151 35.79C28.8964 35.79 29.0776 35.796 29.2589 35.796C31.9737 35.796 34.6884 35.796 37.4032 35.796C38.082 35.796 38.4214 36.1416 38.4214 36.8326C38.4214 37.6288 38.4255 38.4269 38.4214 39.2231C38.4153 39.9424 38.3665 39.9929 37.6211 39.995C35.3096 39.999 32.996 39.995 30.6845 39.995C28.5929 39.995 26.5014 39.995 24.4119 39.995C24.251 39.995 24.0901 39.999 23.9292 39.9909C23.4139 39.9626 23.3447 39.8939 23.3203 39.3888C23.3121 39.2291 23.3162 39.0695 23.3162 38.9099C23.3162 33.7511 23.3203 28.5924 23.3141 23.4336C23.3141 22.1667 23.418 22.3728 24.418 22.3728C28.7803 22.3667 33.1447 22.3707 37.507 22.3707C38.4092 22.3707 38.4194 22.3809 38.4235 23.2659C38.4276 24.1025 38.4316 24.939 38.4194 25.7756C38.4153 26.0059 38.3583 26.2343 38.3135 26.5353L38.3074 26.5394Z" fill="#FFFFFF"/>
<path d="M49.5859 17.5798C49.5859 17.2524 49.5859 17.0342 49.5859 16.818C49.5859 11.4996 49.5859 6.18121 49.5859 0.862829C49.5859 0.802209 49.5859 0.74361 49.5859 0.68299C49.5961 0.0525439 49.6206 0.0222339 50.2825 0.0202133C51.6103 0.0161719 52.9361 0.0202133 54.264 0.0202133C57.3799 0.0202133 60.4979 0.0202133 63.6139 0.0202133C63.7951 0.0202133 63.9764 0.0121306 64.1576 0.0262753C64.5324 0.0525438 64.624 0.119226 64.6301 0.497089C64.6444 1.57208 64.6444 2.64909 64.6301 3.72409C64.624 4.10397 64.5405 4.16863 64.1515 4.18076C63.6485 4.1949 63.1455 4.18682 62.6445 4.18682C60.2108 4.18682 57.7791 4.18682 55.3454 4.18682C55.1845 4.18682 55.0236 4.18682 54.8627 4.19086C54.6489 4.19288 54.5165 4.29391 54.5145 4.51416C54.5083 5.13249 54.5104 5.74879 54.5124 6.36711C54.5124 6.61969 54.6611 6.71871 54.8994 6.71669C55.0603 6.71669 55.2211 6.71871 55.382 6.71871C58.0561 6.71871 60.7301 6.71871 63.4061 6.71871C63.5874 6.71871 63.7687 6.72477 63.9499 6.72275C64.2513 6.72073 64.3918 6.8743 64.3959 7.16325C64.4 7.58153 64.402 7.99981 64.4041 8.41808C64.4041 9.03641 64.4122 9.65271 64.4 10.271C64.3898 10.8287 64.3389 10.8792 63.7646 10.8813C61.0091 10.8853 58.2556 10.8813 55.5002 10.8833C54.4269 10.8833 54.5104 10.7802 54.5083 11.8956C54.5083 12.2533 54.4982 12.613 54.5124 12.9706C54.5287 13.3586 54.5796 13.4031 54.9808 13.4253C55.1417 13.4354 55.3026 13.4293 55.4635 13.4293C58.1783 13.4293 60.893 13.4293 63.6078 13.4293C63.7483 13.4293 63.8888 13.4253 64.0293 13.4293C64.5487 13.4495 64.6342 13.5182 64.6403 14.0194C64.6505 15.0357 64.6505 16.0521 64.6403 17.0665C64.6342 17.5373 64.5507 17.604 64.068 17.6384C63.9275 17.6485 63.787 17.6444 63.6465 17.6444C59.2821 17.6444 54.9197 17.6444 50.5554 17.6424C50.2601 17.6424 49.9647 17.606 49.59 17.5818L49.5859 17.5798Z" fill="#FFFFFF"/>
<path d="M98.4617 39.906C98.4617 39.6373 98.4617 39.4413 98.4617 39.2433C98.4617 33.8845 98.4617 28.5277 98.4617 23.1689C98.4617 23.1285 98.4617 23.0901 98.4617 23.0497C98.4719 22.4071 98.4922 22.3768 99.148 22.3768C103.712 22.3748 108.276 22.3748 112.84 22.3768C113.473 22.3768 113.52 22.4253 113.524 23.0638C113.53 23.9994 113.53 24.937 113.524 25.8726C113.52 26.505 113.485 26.5374 112.828 26.5394C109.952 26.5414 107.076 26.5394 104.203 26.5394C103.656 26.5394 103.381 26.8135 103.38 27.3618C103.38 27.8003 103.384 28.2387 103.382 28.6772C103.382 28.95 103.51 29.0793 103.787 29.0753C103.948 29.0713 104.109 29.0773 104.27 29.0773C106.883 29.0773 109.498 29.0773 112.111 29.0773C112.272 29.0773 112.433 29.0753 112.593 29.0773C113.211 29.0894 113.266 29.144 113.274 29.7785C113.28 30.2574 113.274 30.7343 113.274 31.2132C113.274 31.6719 113.28 32.1285 113.272 32.5872C113.261 33.1934 113.223 33.2358 112.618 33.2358C110.225 33.2399 107.832 33.2358 105.439 33.2358C104.916 33.2358 104.394 33.2278 103.871 33.2399C103.435 33.25 103.392 33.2924 103.382 33.7289C103.37 34.2462 103.37 34.7655 103.382 35.2828C103.392 35.7334 103.445 35.7799 103.922 35.794C104.244 35.8041 104.565 35.798 104.887 35.798C107.4 35.798 109.913 35.798 112.426 35.798C112.587 35.798 112.748 35.794 112.909 35.8001C113.463 35.8223 113.518 35.8728 113.522 36.4386C113.528 37.4146 113.53 38.3905 113.522 39.3665C113.518 39.906 113.449 39.9889 112.887 39.9909C108.282 39.999 103.677 39.997 99.0727 39.9909C98.8975 39.9909 98.7203 39.9424 98.4597 39.904L98.4617 39.906Z" fill="#FFFFFF"/>
<path d="M22.6563 17.5412C22.3508 17.5836 22.139 17.6362 21.9252 17.6382C20.579 17.6463 19.2328 17.6281 17.8867 17.6503C17.3959 17.6584 17.1148 17.4846 16.9376 17.0199C16.6179 16.1833 16.2289 15.373 15.8969 14.5405C15.7646 14.2111 15.569 14.096 15.2147 14.096C12.8828 14.1081 10.553 14.1081 8.22109 14.096C7.86469 14.0939 7.67122 14.2132 7.54087 14.5405C7.20077 15.3912 6.81585 16.2237 6.48797 17.0785C6.33726 17.4725 6.11527 17.6503 5.68963 17.6463C4.30272 17.6341 2.91581 17.6463 1.52891 17.6382C1.35784 17.6382 1.18473 17.5836 0.940338 17.5412C1.03402 17.2846 1.09308 17.0805 1.17862 16.8885C2.77733 13.3039 4.38011 9.71921 5.97882 6.13658C6.79956 4.2998 7.63456 2.46706 8.42882 0.618151C8.62637 0.155419 8.89112 0.0018492 9.38194 0.00993184C10.9888 0.0362004 12.5977 0.0362004 14.2045 0.00993184C14.6974 0.0018492 14.9601 0.15744 15.1597 0.61411C16.7482 4.22503 18.3632 7.82585 19.9681 11.4287C20.7786 13.2493 21.5871 15.0699 22.3956 16.8905C22.4751 17.0704 22.5423 17.2563 22.6543 17.5432L22.6563 17.5412ZM11.781 4.7888C11.7383 4.78476 11.6955 4.78071 11.6527 4.77465C10.9338 6.49019 10.2169 8.20371 9.49599 9.9233C10.0153 10.093 13.3777 10.1031 13.9561 9.94148C13.229 8.21786 12.506 6.50232 11.781 4.78678V4.7888Z" fill="#FFFFFF"/>
<path d="M105.82 17.5212C106.14 16.7856 106.421 16.1289 106.712 15.4762C108.911 10.5398 111.119 5.60936 113.3 0.664804C113.522 0.16166 113.803 -0.00403467 114.345 0.0080893C115.954 0.0424405 117.563 0.0323372 119.172 0.0121306C119.62 0.00606864 119.856 0.167721 120.035 0.571854C122.438 5.98521 124.856 11.3905 127.269 16.7978C127.365 17.014 127.442 17.2362 127.554 17.5252C127.33 17.5717 127.161 17.6343 126.994 17.6363C125.546 17.6444 124.098 17.6363 122.65 17.6444C122.251 17.6464 122.035 17.4747 121.89 17.1089C121.552 16.2562 121.167 15.4237 120.823 14.573C120.685 14.2295 120.479 14.0921 120.098 14.0941C117.785 14.1083 115.473 14.1083 113.16 14.0941C112.783 14.0921 112.573 14.2174 112.435 14.569C112.09 15.4399 111.706 16.2946 111.357 17.1655C111.227 17.4888 111.019 17.6384 110.677 17.6384C109.249 17.6363 107.822 17.6384 106.394 17.6323C106.241 17.6323 106.087 17.5737 105.826 17.5191L105.82 17.5212ZM116.606 4.64147C115.828 6.50047 115.07 8.20995 114.386 9.96591C115.18 10.1296 118.422 10.0871 118.832 9.90933C118.109 8.19783 117.386 6.48835 116.606 4.64147Z" fill="#FFFFFF"/>
<path d="M148.584 22.3829C148.506 22.6597 148.486 22.8153 148.423 22.9507C147.948 23.9832 147.451 25.0077 146.995 26.0484C146.822 26.4444 146.564 26.5515 146.152 26.5475C143.82 26.5333 141.486 26.5374 139.154 26.5434C138.896 26.5434 138.629 26.5616 138.383 26.6283C137.692 26.8162 137.377 27.2729 137.425 27.9498C137.466 28.5095 137.953 28.9824 138.586 29.0571C138.804 29.0834 139.028 29.0753 139.25 29.0753C140.598 29.0753 141.945 29.0571 143.293 29.0834C144.405 29.1056 145.494 29.2733 146.492 29.8048C147.979 30.5948 148.732 31.8557 148.899 33.4965C149.024 34.7109 148.875 35.8708 148.309 36.972C147.704 38.1481 146.759 38.9402 145.539 39.4211C144.694 39.7545 143.814 39.9364 142.894 39.9323C139.837 39.9242 136.78 39.9323 133.723 39.9323C133.544 39.9323 133.367 39.9141 133.124 39.902C133.088 39.6858 133.024 39.4797 133.022 39.2736C133.012 38.338 133.012 37.4004 133.018 36.4649C133.024 35.8425 133.083 35.7799 133.715 35.7799C136.47 35.7758 139.226 35.7799 141.979 35.7758C142.281 35.7758 142.584 35.7819 142.883 35.7516C143.525 35.6869 143.951 35.2666 144.038 34.6402C144.116 34.0805 143.786 33.5592 143.181 33.3591C142.92 33.2722 142.631 33.2399 142.354 33.2379C140.845 33.2257 139.338 33.2419 137.829 33.2237C136.743 33.2096 135.713 32.9368 134.788 32.375C133.489 31.587 132.764 30.3988 132.568 28.9157C132.295 26.8445 132.809 25.038 134.521 23.6923C135.409 22.9951 136.446 22.6173 137.562 22.496C138.297 22.4152 139.042 22.3849 139.784 22.3809C142.437 22.3687 145.093 22.3748 147.747 22.3748C147.983 22.3748 148.219 22.3748 148.582 22.3748L148.584 22.3829Z" fill="#FFFFFF"/>
<path d="M115.881 39.898V35.8486C116.188 35.8243 116.461 35.7839 116.734 35.7839C119.428 35.7799 122.123 35.7819 124.817 35.7799C125.098 35.7799 125.381 35.7859 125.66 35.7556C126.289 35.6869 126.756 35.2262 126.819 34.6402C126.878 34.0825 126.54 33.5571 125.943 33.3611C125.683 33.2763 125.393 33.2439 125.116 33.2399C123.609 33.2278 122.1 33.2581 120.593 33.2217C119.367 33.1914 118.212 32.8762 117.208 32.1366C116.284 31.4536 115.718 30.5484 115.455 29.435C115.235 28.5075 115.194 27.5861 115.418 26.6586C115.956 24.4217 117.463 23.1568 119.642 22.6294C120.355 22.4576 121.11 22.395 121.848 22.3889C124.742 22.3627 127.638 22.3768 130.534 22.3788C130.77 22.3788 131.006 22.399 131.332 22.4152C131.269 22.6415 131.246 22.8113 131.179 22.9608C130.69 24.0297 130.181 25.0906 129.703 26.1656C129.546 26.5171 129.281 26.5353 128.968 26.5353C126.636 26.5313 124.304 26.5293 121.97 26.5394C121.673 26.5394 121.363 26.5697 121.082 26.6566C120.442 26.8566 120.098 27.386 120.18 27.966C120.259 28.5317 120.756 28.9925 121.375 29.0551C121.595 29.0773 121.817 29.0713 122.039 29.0713C123.367 29.0713 124.693 29.0652 126.021 29.0753C126.929 29.0834 127.823 29.2147 128.674 29.536C130.385 30.1826 131.361 31.4172 131.642 33.2076C131.876 34.6988 131.65 36.1032 130.841 37.3923C129.963 38.7906 128.599 39.4554 127.039 39.7949C126.668 39.8757 126.283 39.9182 125.905 39.9202C122.768 39.9323 119.632 39.9303 116.496 39.9303C116.318 39.9303 116.139 39.9101 115.883 39.8939L115.881 39.898Z" fill="#FFFFFF"/>
<path d="M52.8546 30.9788C55.4737 33.9229 58.0703 36.8447 60.7647 39.8757C60.4368 39.9323 60.2535 39.9929 60.0702 39.9929C58.3819 40.001 56.6916 39.9929 55.0032 40.001C54.6041 40.003 54.3332 39.8414 54.0807 39.5443C52.82 38.0693 51.5431 36.6104 50.2682 35.1474C50.1012 34.9554 49.922 34.7736 49.7081 34.5432C49.2968 35.012 48.9302 35.4262 48.5656 35.8465C47.5046 37.069 46.4374 38.2895 45.3886 39.5241C45.1218 39.8373 44.8346 40.0071 44.411 40.003C42.7818 39.9909 41.1525 40.001 39.5253 39.995C39.3522 39.995 39.1791 39.9505 38.9958 39.9242C38.9673 39.6171 39.177 39.4938 39.3135 39.3423C41.6535 36.7114 43.9976 34.0845 46.3376 31.4577C46.4415 31.3405 46.5331 31.2152 46.6594 31.0556C44.1361 28.2024 41.572 25.4159 38.9734 22.4839C39.2626 22.4314 39.4072 22.3809 39.5517 22.3809C41.3012 22.3748 43.0506 22.3889 44.8 22.3687C45.2236 22.3647 45.4598 22.5809 45.7022 22.8618C46.9058 24.252 48.1176 25.6382 49.3273 27.0243C49.4576 27.1718 49.5961 27.3113 49.7855 27.5133C49.9586 27.3355 50.1114 27.19 50.2478 27.0344C51.4596 25.6483 52.6754 24.2681 53.8689 22.8699C54.1662 22.5223 54.4778 22.3606 54.9503 22.3687C56.5184 22.395 58.0866 22.3768 59.6548 22.3809C59.8645 22.3809 60.0743 22.4051 60.4144 22.4273C60.0336 23.0679 59.5611 23.468 59.1721 23.9307C58.7607 24.4197 58.3208 24.8865 57.8911 25.3613C57.4756 25.822 57.0581 26.2807 56.6447 26.7435C56.2313 27.2062 55.8219 27.6709 55.4085 28.1337C54.9808 28.6105 54.5531 29.0854 54.1255 29.5623C53.712 30.021 53.3007 30.4817 52.8485 30.9848L52.8546 30.9788Z" fill="#FFFFFF"/>
<path d="M61.0539 39.8818V39.1564C61.0539 33.838 61.0539 28.5196 61.0539 23.2012C61.0539 23.082 61.0498 22.9608 61.058 22.8436C61.0865 22.4657 61.1435 22.4091 61.5325 22.3809C61.6526 22.3707 61.7728 22.3768 61.895 22.3768C65.0924 22.3768 68.2898 22.3788 71.4873 22.3768C72.3182 22.3768 73.1328 22.5041 73.9128 22.7688C75.8639 23.4316 77.1347 24.741 77.6194 26.7475C78.0308 28.4469 77.8475 30.0796 76.9046 31.5749C75.9229 33.1308 74.422 33.9087 72.6339 34.1876C72.1003 34.2704 71.5545 34.2967 71.0127 34.3028C69.5444 34.3189 68.078 34.3048 66.6097 34.3088C65.9906 34.3088 65.9783 34.325 65.9763 34.9554C65.9722 36.2709 65.9763 37.5843 65.9763 38.8998C65.9763 39.0594 65.9804 39.219 65.9743 39.3787C65.9539 39.8879 65.9213 39.9283 65.4203 39.9364C64.7767 39.9465 64.1332 39.9404 63.4896 39.9404C62.8868 39.9404 62.284 39.9444 61.6791 39.9384C61.504 39.9384 61.3288 39.9101 61.0519 39.8858L61.0539 39.8818ZM68.7807 30.1422C69.5423 30.1422 70.3061 30.1604 71.0677 30.1341C71.7439 30.1119 72.3161 29.8755 72.6522 29.237C73.3202 27.97 72.4913 26.5798 71.0046 26.5475C69.5016 26.5151 67.9966 26.5333 66.4915 26.5394C66.0231 26.5394 65.9824 26.5858 65.9783 27.0587C65.9702 27.9134 65.9702 28.7682 65.9783 29.6209C65.9824 30.0917 66.0252 30.1341 66.4936 30.1382C67.2553 30.1463 68.0169 30.1402 68.7807 30.1402V30.1422Z" fill="#FFFFFF"/>
<path d="M105.706 13.5283C105.628 13.7688 105.6 13.9062 105.541 14.0274C105.044 15.0721 104.539 16.1128 104.044 17.1595C103.916 17.4302 103.753 17.6283 103.421 17.6323C101.726 17.6565 100.042 17.5919 98.4373 16.9695C96.1746 16.0926 94.6675 14.4942 93.9833 12.1907C93.2603 9.75778 93.2664 7.31682 94.2032 4.9284C95.1563 2.49754 97.0055 1.05479 99.5024 0.383932C100.494 0.117205 101.515 0.0181926 102.543 0.0181926C104.111 0.0181926 105.679 0.0181926 107.247 0.0181926C107.327 0.0181926 107.408 0.0181926 107.488 0.0181926C108.015 0.0363786 108.084 0.0909364 108.089 0.604184C108.099 1.64078 108.091 2.67536 108.091 3.71196C108.091 3.75237 108.091 3.79279 108.087 3.83118C108.052 4.21511 107.999 4.27169 107.614 4.29593C107.433 4.30806 107.252 4.29997 107.07 4.29997C105.643 4.29997 104.215 4.29593 102.787 4.30402C102.121 4.30806 101.47 4.40909 100.84 4.64349C99.9056 4.99306 99.201 5.60734 98.8446 6.5227C98.2193 8.12711 98.1949 9.75778 98.9281 11.3379C99.5513 12.6817 100.716 13.2919 102.152 13.395C103.072 13.4617 104.001 13.4233 104.926 13.4435C105.158 13.4475 105.39 13.492 105.702 13.5263L105.706 13.5283Z" fill="#FFFFFF"/>
<path d="M91.2767 8.85252C91.2767 11.4814 91.2767 14.1103 91.2767 16.7392C91.2767 17.6202 91.2542 17.6384 90.3643 17.6404C89.2584 17.6424 88.1525 17.6464 87.0467 17.6384C86.3807 17.6323 86.3115 17.5676 86.3115 16.923C86.3074 11.5259 86.3115 6.12867 86.3115 0.731486C86.3115 0.691073 86.3115 0.65268 86.3115 0.612267C86.34 0.0909365 86.393 0.0262753 86.9164 0.0202133C87.7412 0.0121306 88.5639 0.0161719 89.3887 0.0161719C89.8307 0.0161719 90.2726 0.0080893 90.7146 0.0202133C91.1585 0.0323372 91.2278 0.10306 91.2644 0.545585C91.2807 0.74361 91.2746 0.943656 91.2746 1.1437C91.2746 3.71196 91.2746 6.28224 91.2746 8.8505L91.2767 8.85252Z" fill="#FFFFFF"/>
</svg>