<svg xmlns="http://www.w3.org/2000/svg" width="57" height="56" viewBox="0 0 57 56" fill="none">
<path d="M55.7401 0.00311279H2.22083C1.5358 0.00311279 0.980469 0.558441 0.980469 1.24347V54.7627C0.980469 55.4478 1.5358 56.0031 2.22083 56.0031H55.7401C56.4251 56.0031 56.9805 55.4478 56.9805 54.7627V1.24347C56.9805 0.558441 56.4251 0.00311279 55.7401 0.00311279Z" fill="#FFFFFF"/>
<path d="M25.3964 12.8091H24.2938C24.2277 12.8091 24.2056 12.8422 24.2056 12.9084V17.2763C24.2068 17.2867 24.2056 17.2972 24.2021 17.3071C24.1987 17.317 24.193 17.326 24.1856 17.3334C24.1782 17.3409 24.1692 17.3465 24.1593 17.35C24.1494 17.3534 24.1389 17.3546 24.1284 17.3535H23.3328C23.2776 17.3535 23.2556 17.3314 23.2556 17.2763V12.901C23.2556 12.8349 23.2335 12.8018 23.1564 12.8018H22.0538C21.9987 12.8018 21.9656 12.7797 21.9656 12.7246V12.0741C21.9656 12.019 21.9987 11.9969 22.0538 11.9969H25.3927C25.4031 11.9958 25.4137 11.997 25.4236 12.0004C25.4335 12.0039 25.4424 12.0095 25.4499 12.017C25.4573 12.0244 25.4629 12.0334 25.4664 12.0432C25.4698 12.0531 25.471 12.0637 25.4699 12.0741V12.7265C25.4699 12.7816 25.4478 12.8036 25.3927 12.8036" fill="#000000"/>
<path d="M30.4718 17.3461H29.6871C29.6767 17.3473 29.6662 17.3461 29.6563 17.3426C29.6464 17.3392 29.6374 17.3335 29.63 17.3261C29.6226 17.3187 29.6169 17.3097 29.6135 17.2998C29.61 17.2899 29.6088 17.2794 29.61 17.2689V15.1227C29.61 15.0675 29.5769 15.0344 29.5107 15.0344H27.686C27.6199 15.0344 27.5978 15.0675 27.5978 15.1227V17.2671C27.5978 17.3222 27.5647 17.3443 27.5096 17.3443H26.714C26.7035 17.3454 26.693 17.3443 26.6831 17.3408C26.6732 17.3373 26.6642 17.3317 26.6568 17.3243C26.6494 17.3168 26.6437 17.3079 26.6403 17.298C26.6368 17.2881 26.6356 17.2775 26.6368 17.2671V12.0741C26.6356 12.0637 26.6368 12.0532 26.6403 12.0433C26.6437 12.0334 26.6494 12.0244 26.6568 12.017C26.6642 12.0095 26.6732 12.0039 26.6831 12.0004C26.693 11.997 26.7035 11.9958 26.714 11.9969H27.5096C27.5206 11.9957 27.5317 11.9967 27.5422 12C27.5528 12.0032 27.5625 12.0087 27.5708 12.016C27.5792 12.0232 27.5859 12.0322 27.5905 12.0422C27.5951 12.0522 27.5976 12.0631 27.5978 12.0741V14.1304C27.5978 14.1855 27.6199 14.2186 27.686 14.2186H29.5107C29.5769 14.2186 29.61 14.1855 29.61 14.1304V12.0741C29.6088 12.0637 29.61 12.0532 29.6135 12.0433C29.6169 12.0334 29.6226 12.0244 29.63 12.017C29.6374 12.0095 29.6464 12.0039 29.6563 12.0004C29.6662 11.997 29.6767 11.9958 29.6871 11.9969H30.4718C30.5379 11.9969 30.56 12.019 30.56 12.0741V17.2708C30.56 17.3259 30.5379 17.3479 30.4718 17.3479" fill="#000000"/>
<path d="M35.7456 17.3461H32.517C32.5066 17.3473 32.496 17.3461 32.4861 17.3426C32.4762 17.3392 32.4672 17.3335 32.4598 17.3261C32.4524 17.3187 32.4467 17.3097 32.4433 17.2998C32.4398 17.2899 32.4386 17.2794 32.4398 17.2689V12.0741C32.4386 12.0637 32.4398 12.0532 32.4433 12.0433C32.4467 12.0334 32.4524 12.0244 32.4598 12.017C32.4672 12.0095 32.4762 12.0039 32.4861 12.0004C32.496 11.997 32.5066 11.9958 32.517 11.9969H35.7456C35.7565 11.9957 35.7677 11.9967 35.7782 12C35.7888 12.0032 35.7985 12.0087 35.8068 12.016C35.8151 12.0232 35.8218 12.0322 35.8265 12.0422C35.8311 12.0522 35.8336 12.0631 35.8338 12.0741V12.7265C35.8338 12.7816 35.8007 12.8036 35.7456 12.8036H33.489C33.4229 12.8036 33.4008 12.8367 33.4008 12.9029V14.1304C33.4008 14.1855 33.4229 14.2186 33.489 14.2186H35.3579C35.3688 14.2173 35.3799 14.2183 35.3905 14.2216C35.401 14.2249 35.4108 14.2303 35.4191 14.2376C35.4274 14.2449 35.4341 14.2538 35.4387 14.2638C35.4434 14.2738 35.4459 14.2847 35.4461 14.2957V14.9591C35.4459 14.9701 35.4434 14.981 35.4387 14.991C35.4341 15.0011 35.4274 15.01 35.4191 15.0173C35.4108 15.0245 35.401 15.03 35.3905 15.0333C35.3799 15.0365 35.3688 15.0376 35.3579 15.0363H33.489C33.4229 15.0363 33.4008 15.0694 33.4008 15.1245V16.4402C33.4008 16.4953 33.4229 16.5284 33.489 16.5284H35.7456C35.7575 16.5273 35.7694 16.5288 35.7806 16.5328C35.7919 16.5368 35.802 16.5433 35.8105 16.5517C35.8189 16.5601 35.8254 16.5703 35.8294 16.5815C35.8334 16.5928 35.8349 16.6047 35.8338 16.6166V17.2689C35.8338 17.3241 35.8007 17.3461 35.7456 17.3461Z" fill="#000000"/>
<path d="M18.2923 40.5951H17.5425C17.4874 40.5951 17.4543 40.573 17.4543 40.5179V38.9192C17.4543 38.1842 17.5205 37.2433 17.5315 37.1441L17.4984 37.1331C17.4874 37.1662 17.3661 37.5962 17.2779 37.8056L16.4069 39.8012C16.3959 39.8564 16.3518 39.8674 16.3077 39.8674H15.8262C15.8031 39.8702 15.7797 39.8652 15.7598 39.8532C15.7398 39.8413 15.7244 39.823 15.716 39.8012L14.8652 37.8001C14.777 37.5906 14.6557 37.1717 14.6447 37.1386L14.6116 37.1496C14.6226 37.2489 14.6888 38.175 14.6888 38.9137V40.5234C14.6888 40.5785 14.6667 40.6006 14.6006 40.6006H13.8398C13.7847 40.6006 13.7626 40.5785 13.7626 40.5234V35.3415C13.7626 35.2863 13.7847 35.2643 13.8398 35.2643H14.6337C14.6494 35.2635 14.665 35.2673 14.6787 35.2751C14.6923 35.2829 14.7035 35.2944 14.7108 35.3084L15.9567 38.2485C16.0008 38.3588 16.0559 38.5462 16.067 38.5903H16.1C16.1 38.5462 16.1772 38.3588 16.2103 38.2485L17.4341 35.3084C17.4428 35.2931 17.4558 35.2807 17.4715 35.2729C17.4872 35.265 17.5049 35.262 17.5223 35.2643H18.2941C18.3492 35.2643 18.3823 35.2863 18.3823 35.3415V40.5234C18.3823 40.5785 18.3492 40.6006 18.2941 40.6006" fill="#000000"/>
<path d="M23.6838 40.5933H22.8349C22.7908 40.5933 22.7687 40.5822 22.7577 40.5381L22.449 39.6193C22.438 39.5752 22.4049 39.5642 22.3498 39.5642H20.9495C20.8944 39.5642 20.8724 39.5752 20.8613 39.6193L20.5526 40.5381C20.5465 40.556 20.5343 40.5713 20.5183 40.5813C20.5022 40.5913 20.4832 40.5955 20.4644 40.5933H19.6375C19.5603 40.5933 19.5273 40.5491 19.5493 40.483L21.2693 35.3121C21.2754 35.2942 21.2876 35.2789 21.3036 35.2689C21.3197 35.2589 21.3387 35.2546 21.3575 35.2569H21.9529C21.997 35.2569 22.03 35.268 22.03 35.3121L23.761 40.483C23.7831 40.5491 23.761 40.5933 23.6838 40.5933ZM21.7985 37.2489C21.7544 37.0063 21.6882 36.6314 21.6772 36.5984H21.6441C21.6168 36.8183 21.5725 37.0358 21.5118 37.2489L21.0818 38.7594C21.0708 38.8035 21.0929 38.8476 21.17 38.8476H22.1403C22.2064 38.8476 22.2395 38.8035 22.2175 38.7594L21.7985 37.2489Z" fill="#000000"/>
<path d="M28.7757 40.5933H27.9267C27.9111 40.5928 27.8961 40.5871 27.8841 40.5771C27.8721 40.5671 27.8638 40.5534 27.8605 40.5381L26.9914 38.3514C26.9871 38.3346 26.977 38.3198 26.9629 38.3097C26.9487 38.2996 26.9315 38.2949 26.9142 38.2963H25.977C25.9109 38.2963 25.8888 38.3294 25.8888 38.3845V40.5234C25.8888 40.5785 25.8558 40.6006 25.8006 40.6006H25.0141C25.0037 40.6018 24.9932 40.6006 24.9833 40.5971C24.9734 40.5936 24.9644 40.588 24.957 40.5806C24.9496 40.5732 24.9439 40.5642 24.9405 40.5543C24.937 40.5444 24.9358 40.5338 24.937 40.5234V35.3415C24.9358 35.3311 24.937 35.3205 24.9405 35.3106C24.9439 35.3007 24.9496 35.2917 24.957 35.2843C24.9644 35.2769 24.9734 35.2712 24.9833 35.2678C24.9932 35.2643 25.0037 35.2631 25.0141 35.2643H27.0869C28.0792 35.2643 28.7187 35.8597 28.7187 36.8299V36.9071C28.7101 37.1428 28.6393 37.372 28.5134 37.5715C28.3875 37.7709 28.2111 37.9335 28.002 38.0427C27.9469 38.0758 27.9469 38.1199 27.9579 38.186L28.8767 40.4903C28.8988 40.5565 28.8767 40.6006 28.7885 40.6006M27.7705 36.7472C27.7728 36.6568 27.7566 36.5669 27.7231 36.483C27.6895 36.399 27.6393 36.3227 27.5753 36.2588C27.5114 36.1949 27.4351 36.1446 27.3512 36.111C27.2672 36.0775 27.1773 36.0614 27.0869 36.0636H25.9844C25.9182 36.0636 25.8962 36.0967 25.8962 36.1629V37.4326C25.8962 37.4878 25.9182 37.5208 25.9844 37.5208H27.0869C27.1759 37.5248 27.2647 37.5106 27.348 37.4791C27.4313 37.4476 27.5073 37.3993 27.5713 37.3374C27.6353 37.2755 27.686 37.2011 27.7202 37.1189C27.7545 37.0367 27.7716 36.9484 27.7705 36.8593V36.7472Z" fill="#000000"/>
<path d="M34.3654 40.5951H33.329C33.3092 40.595 33.2897 40.5899 33.2723 40.5803C33.255 40.5706 33.2404 40.5568 33.2298 40.54L31.8737 38.3514C31.8296 38.2852 31.7745 38.2853 31.7303 38.3404L31.3224 38.8475V40.5124C31.3224 40.5675 31.2893 40.5896 31.2342 40.5896H30.4404C30.43 40.5907 30.4194 40.5895 30.4095 40.5861C30.3996 40.5826 30.3906 40.577 30.3832 40.5695C30.3758 40.5621 30.3701 40.5531 30.3667 40.5433C30.3632 40.5334 30.362 40.5228 30.3632 40.5124V35.3304C30.362 35.32 30.3632 35.3095 30.3667 35.2996C30.3701 35.2897 30.3758 35.2807 30.3832 35.2733C30.3906 35.2659 30.3996 35.2602 30.4095 35.2567C30.4194 35.2533 30.43 35.2521 30.4404 35.2533H31.2342C31.2452 35.2517 31.2565 35.2525 31.2671 35.2556C31.2778 35.2588 31.2877 35.2642 31.2961 35.2716C31.3044 35.2789 31.3111 35.288 31.3157 35.2981C31.3202 35.3083 31.3225 35.3193 31.3224 35.3304V37.2489C31.3253 37.3488 31.3364 37.4484 31.3555 37.5465L33.1416 35.2974C33.1512 35.283 33.1644 35.2713 33.1798 35.2636C33.1953 35.2558 33.2125 35.2523 33.2298 35.2533H34.167C34.2662 35.2533 34.2882 35.3194 34.2331 35.3856L32.5132 37.4069C32.4801 37.44 32.4911 37.462 32.5132 37.4951L34.4316 40.4609C34.4757 40.5271 34.4536 40.5822 34.3654 40.5822" fill="#000000"/>
<path d="M38.9061 40.5951H35.6867C35.6762 40.5962 35.6657 40.595 35.6558 40.5916C35.6459 40.5881 35.6369 40.5825 35.6295 40.5751C35.6221 40.5676 35.6164 40.5587 35.613 40.5488C35.6095 40.5389 35.6083 40.5283 35.6095 40.5179V35.3359C35.6083 35.3255 35.6095 35.315 35.613 35.3051C35.6164 35.2952 35.6221 35.2862 35.6295 35.2788C35.6369 35.2714 35.6459 35.2657 35.6558 35.2622C35.6657 35.2588 35.6762 35.2576 35.6867 35.2588H38.9061C38.9171 35.2572 38.9283 35.258 38.939 35.2611C38.9497 35.2643 38.9596 35.2697 38.9679 35.2771C38.9763 35.2844 38.983 35.2935 38.9876 35.3036C38.9921 35.3138 38.9944 35.3248 38.9943 35.3359V35.9864C38.9943 36.0416 38.9612 36.0636 38.9061 36.0636H36.6569C36.5907 36.0636 36.5687 36.0967 36.5687 36.1628V37.3867C36.5687 37.4418 36.5907 37.4749 36.6569 37.4749H38.5202C38.5312 37.4736 38.5423 37.4746 38.5528 37.4779C38.5634 37.4812 38.5731 37.4866 38.5814 37.4939C38.5897 37.5012 38.5964 37.5101 38.6011 37.5201C38.6057 37.5301 38.6082 37.541 38.6084 37.5521V38.2136C38.6085 38.2247 38.6062 38.2357 38.6017 38.2459C38.5971 38.2561 38.5904 38.2651 38.582 38.2724C38.5737 38.2798 38.5638 38.2852 38.5531 38.2884C38.5424 38.2915 38.5312 38.2923 38.5202 38.2908H36.6569C36.5907 38.2908 36.5687 38.3238 36.5687 38.379V39.691C36.5687 39.7461 36.5907 39.7792 36.6569 39.7792H38.9061C38.918 39.7781 38.9299 39.7795 38.9411 39.7836C38.9524 39.7876 38.9625 39.7941 38.971 39.8025C38.9794 39.8109 38.9859 39.8211 38.9899 39.8323C38.9939 39.8436 38.9954 39.8555 38.9943 39.8674V40.5179C38.9943 40.573 38.9612 40.5951 38.9061 40.5951Z" fill="#000000"/>
<path d="M43.2282 36.0636H42.1256C42.0595 36.0636 42.0374 36.0967 42.0374 36.1628V40.5179C42.0386 40.5283 42.0374 40.5389 42.034 40.5488C42.0305 40.5587 42.0248 40.5676 42.0174 40.5751C42.01 40.5825 42.001 40.5881 41.9911 40.5916C41.9812 40.595 41.9707 40.5962 41.9603 40.5951H41.1664C41.1113 40.5951 41.0893 40.573 41.0893 40.5179V36.1628C41.0893 36.0967 41.0672 36.0636 40.99 36.0636H39.8985C39.8434 36.0636 39.8103 36.0416 39.8103 35.9864V35.3359C39.8103 35.2808 39.8434 35.2588 39.8985 35.2588H43.2282C43.2386 35.2576 43.2492 35.2588 43.2591 35.2623C43.2689 35.2657 43.2779 35.2714 43.2854 35.2788C43.2928 35.2862 43.2984 35.2952 43.3019 35.3051C43.3053 35.315 43.3065 35.3255 43.3054 35.3359V35.9864C43.3054 36.0416 43.2833 36.0636 43.2282 36.0636Z" fill="#000000"/>
<path d="M8.9665 17.4031V8.07924C8.9665 8.05683 8.9754 8.03533 8.99125 8.01947C9.00711 8.00362 9.02861 7.99472 9.05102 7.99472H48.9024C48.9249 7.99472 48.9464 8.00362 48.9622 8.01947C48.9781 8.03533 48.987 8.05683 48.987 8.07924V17.4031H50.6794V8.07924C50.6794 7.60797 50.4922 7.156 50.1589 6.82276C49.8257 6.48952 49.3737 6.30231 48.9024 6.30231H9.05102C8.57975 6.30231 8.12778 6.48952 7.79454 6.82276C7.4613 7.156 7.27409 7.60797 7.27409 8.07924V17.4031H8.9665Z" fill="#000000"/>
<path d="M48.9961 35.1871V47.927C48.9961 47.9494 48.9872 47.9709 48.9713 47.9868C48.9555 48.0026 48.934 48.0115 48.9116 48.0115H37.1217C36.7211 48.6198 36.3132 49.1857 35.8997 49.7039H48.9024C49.3736 49.7039 49.8256 49.5167 50.1589 49.1835C50.4921 48.8502 50.6793 48.3983 50.6793 47.927V35.1871H48.9961Z" fill="#000000"/>
<path d="M8.9665 35.1871V47.927C8.9665 47.9494 8.9754 47.9709 8.99125 47.9868C9.00711 48.0026 9.02861 48.0115 9.05102 48.0115H20.839C21.2396 48.6198 21.6476 49.1857 22.0629 49.7039H9.05102C8.57975 49.7039 8.12778 49.5167 7.79454 49.1835C7.4613 48.8502 7.27409 48.3983 7.27409 47.927V35.1871H8.9665Z" fill="#000000"/>
<path d="M29.9003 44.8142C26.4916 44.3364 23.8712 46.2989 24.3453 48.5867C27.3828 45.9718 29.553 47.3868 33.1822 46.5121C33.3255 46.4772 33.1932 46.6517 32.9782 46.7528C31.0763 47.6477 29.711 46.9862 27.1402 47.6495C25.1814 48.1549 23.7812 49.9943 23.0976 51.0986C22.8458 51.5636 23.2225 52.2012 23.2813 52.3004C23.3806 52.4676 23.4651 52.418 23.4835 52.2526C23.568 51.7289 23.8271 50.5896 24.5107 50.1358C26.8462 52.69 32.8624 52.7708 36.7269 44.669C36.8151 44.4852 36.7397 44.1747 36.3483 44.4411C34.7643 45.1982 33.309 45.2919 29.9003 44.8086" fill="#000000"/>
<path d="M11.1332 20.8945H4.44816C4.42669 20.8919 4.40491 20.8941 4.38445 20.9011C4.36398 20.9081 4.34537 20.9196 4.32999 20.9348C4.31461 20.95 4.30287 20.9685 4.29565 20.9889C4.28843 21.0093 4.28591 21.031 4.28829 21.0525V31.613C4.28591 31.6345 4.28843 31.6563 4.29565 31.6767C4.30287 31.697 4.31461 31.7155 4.32999 31.7307C4.34537 31.7459 4.36398 31.7575 4.38445 31.7644C4.40491 31.7714 4.42669 31.7737 4.44816 31.7711H6.10197C6.2159 31.7711 6.28573 31.7251 6.28573 31.613V27.2525C6.28573 27.1404 6.33167 27.0687 6.46949 27.0687H10.3321C10.4239 27.0687 10.5158 27.0228 10.5158 26.9107V25.5619C10.5158 25.4498 10.4239 25.4039 10.3321 25.4039H6.46397C6.32615 25.4039 6.28022 25.3359 6.28022 25.2201V22.7321C6.28022 22.5979 6.32615 22.5299 6.46397 22.5299H11.1332C11.2472 22.5299 11.317 22.484 11.317 22.3719V21.047C11.317 20.9386 11.2325 20.8945 11.1332 20.8945Z" fill="#000000"/>
<path d="M20.3615 26.8482C20.3376 26.7141 20.3376 26.624 20.4534 26.556C20.885 26.3374 21.2505 26.0076 21.5121 25.6006C21.7738 25.1936 21.9221 24.7241 21.9418 24.2407V24.0845C21.9418 22.1073 20.6132 20.8926 18.5533 20.8926H14.2479C14.2264 20.89 14.2046 20.8923 14.1842 20.8993C14.1637 20.9062 14.1451 20.9178 14.1297 20.933C14.1143 20.9482 14.1026 20.9666 14.0954 20.987C14.0882 21.0074 14.0856 21.0292 14.088 21.0507V31.6112C14.0856 31.6327 14.0882 31.6544 14.0954 31.6748C14.1026 31.6952 14.1143 31.7137 14.1297 31.7289C14.1451 31.7441 14.1637 31.7556 14.1842 31.7626C14.2046 31.7696 14.2264 31.7718 14.2479 31.7692H15.9017C16.0156 31.7692 16.0855 31.7233 16.0855 31.6112V27.2525C16.0855 27.1404 16.1314 27.0687 16.2692 27.0687H18.2152C18.2508 27.0657 18.2862 27.0753 18.3154 27.0958C18.3446 27.1163 18.3657 27.1464 18.3751 27.1808L20.1833 31.6516C20.1906 31.6829 20.2081 31.7109 20.233 31.7312C20.258 31.7515 20.2889 31.7629 20.3211 31.7637H22.0741C22.2579 31.7637 22.3038 31.6737 22.2579 31.5395L20.3615 26.8482ZM19.9719 24.1525C19.9719 24.939 19.3545 25.5013 18.5533 25.5013H16.2619C16.1241 25.5013 16.0781 25.4333 16.0781 25.3175V22.732C16.0781 22.5979 16.1241 22.5299 16.2619 22.5299H18.5515C18.7374 22.5234 18.9226 22.5548 19.096 22.6221C19.2693 22.6895 19.4272 22.7914 19.5599 22.9217C19.6926 23.052 19.7974 23.208 19.8679 23.3801C19.9384 23.5522 19.9732 23.7368 19.9701 23.9228L19.9719 24.1525Z" fill="#000000"/>
<path d="M32.2191 20.8945H25.534C25.5126 20.8919 25.4908 20.8941 25.4703 20.9011C25.4499 20.9081 25.4313 20.9196 25.4159 20.9348C25.4005 20.95 25.3888 20.9685 25.3815 20.9889C25.3743 21.0093 25.3718 21.031 25.3742 21.0525V31.613C25.3718 31.6345 25.3743 31.6563 25.3815 31.6767C25.3888 31.697 25.4005 31.7155 25.4159 31.7307C25.4313 31.7459 25.4499 31.7575 25.4703 31.7644C25.4908 31.7714 25.5126 31.7737 25.534 31.7711H32.2191C32.3331 31.7711 32.4029 31.7251 32.4029 31.613V30.2881C32.4055 30.2634 32.4025 30.2383 32.3942 30.2149C32.3859 30.1914 32.3724 30.1701 32.3548 30.1525C32.3372 30.1348 32.3159 30.1214 32.2924 30.1131C32.2689 30.1048 32.2439 30.1018 32.2191 30.1044H27.5499C27.412 30.1044 27.3661 30.0364 27.3661 29.9206V27.2525C27.3661 27.1404 27.412 27.0687 27.5499 27.0687H31.4198C31.5117 27.0687 31.6035 27.0228 31.6035 26.9107V25.5619C31.6035 25.4498 31.5117 25.4057 31.4198 25.4057H27.5499C27.412 25.4057 27.3661 25.3377 27.3661 25.222V22.7321C27.3661 22.5979 27.412 22.5299 27.5499 22.5299H32.2191C32.3331 22.5299 32.4029 22.4858 32.4029 22.3719V21.047C32.4029 20.9386 32.311 20.8945 32.2191 20.8945Z" fill="#000000"/>
<path d="M53.4966 20.8945H51.8703C51.8489 20.8918 51.8271 20.8941 51.8066 20.9011C51.7862 20.9081 51.7676 20.9196 51.7522 20.9348C51.7368 20.95 51.7251 20.9685 51.7178 20.9889C51.7106 21.0093 51.7081 21.031 51.7105 21.0525V25.2311C51.7105 25.3432 51.6425 25.4149 51.5028 25.4149H47.7193C47.5815 25.4149 47.5355 25.3469 47.5355 25.2311V21.0507C47.5355 20.9386 47.4436 20.8926 47.3518 20.8926H45.6979C45.6765 20.89 45.6547 20.8923 45.6342 20.8993C45.6138 20.9062 45.5951 20.9178 45.5798 20.933C45.5644 20.9482 45.5527 20.9666 45.5454 20.987C45.5382 21.0074 45.5357 21.0292 45.5381 21.0507V31.6112C45.5357 31.6327 45.5382 31.6544 45.5454 31.6748C45.5527 31.6952 45.5644 31.7137 45.5798 31.7289C45.5951 31.7441 45.6138 31.7556 45.6342 31.7626C45.6547 31.7696 45.6765 31.7718 45.6979 31.7692H47.3518C47.4657 31.7692 47.5355 31.7233 47.5355 31.6112V27.2525C47.5355 27.1404 47.5815 27.0687 47.7193 27.0687H51.4955C51.6333 27.0687 51.7031 27.1367 51.7031 27.2525V31.6112C51.7007 31.6327 51.7033 31.6544 51.7105 31.6748C51.7177 31.6952 51.7294 31.7137 51.7448 31.7289C51.7602 31.7441 51.7788 31.7556 51.7993 31.7626C51.8198 31.7696 51.8415 31.7718 51.863 31.7692H53.4966C53.6344 31.7692 53.6804 31.7233 53.6804 31.6112V21.0507C53.6804 20.9386 53.6252 20.8945 53.4966 20.8945Z" fill="#000000"/>
<path d="M37.6715 30.3029C37.5389 30.2645 37.4107 30.2121 37.2892 30.1467C37.4091 30.2155 37.5377 30.268 37.6715 30.3029Z" fill="#000000"/>
<path d="M39.4318 25.5215C38.309 25.0951 37.0264 24.6449 37.0264 23.7464C37.0232 23.5419 37.0636 23.3391 37.1451 23.1515C37.2265 22.9639 37.347 22.7958 37.4986 22.6585L37.5152 22.6438C37.5483 22.6163 37.5813 22.5905 37.6163 22.5648C37.6595 22.5349 37.7043 22.5073 37.7504 22.4821C38.0384 22.332 38.3591 22.2556 38.6839 22.2598C39.1026 22.259 39.5102 22.3944 39.8452 22.6457C40.0763 22.8191 40.2737 23.0333 40.4277 23.2778C40.4737 23.3899 40.5876 23.3899 40.7034 23.3219L41.9401 22.5869C41.9673 22.5758 41.9914 22.5583 42.0105 22.5359C42.0295 22.5136 42.043 22.487 42.0496 22.4584C42.0563 22.4297 42.056 22.3999 42.0488 22.3715C42.0415 22.343 42.0276 22.3167 42.008 22.2947C41.6785 21.7221 41.1797 21.2657 40.5803 20.9882C39.9755 20.7267 39.3224 20.5959 38.6637 20.6041C38.105 20.5989 37.5498 20.6909 37.0227 20.8761L36.9731 20.8945L36.8463 20.9459C35.6795 21.42 35.0087 22.4472 35.0087 23.8033C35.0087 25.7346 36.3134 26.387 37.9397 27.0393C39.1304 27.5116 40.3285 27.8938 40.3285 28.9265C40.3264 29.1343 40.2795 29.3392 40.191 29.5272C40.1025 29.7153 39.9746 29.882 39.8158 30.0162C39.77 30.0543 39.7222 30.0898 39.6725 30.1227L39.6413 30.143C39.6082 30.1632 39.5751 30.1815 39.542 30.1999C39.203 30.3633 38.8282 30.4385 38.4523 30.4186C38.1907 30.4197 37.9303 30.3838 37.6787 30.312C37.5449 30.2772 37.4164 30.2246 37.2965 30.1558L37.2193 30.1117L37.1569 30.0695L37.1072 30.0364C36.8681 29.854 36.664 29.6299 36.5045 29.3749C36.4908 29.3521 36.4724 29.3326 36.4504 29.3177C36.4284 29.3027 36.4035 29.2927 36.3773 29.2884C36.3511 29.284 36.3243 29.2854 36.2986 29.2924C36.273 29.2994 36.2492 29.3118 36.2289 29.3289L34.994 30.0639C34.9685 30.0772 34.9465 30.0963 34.9296 30.1197C34.9128 30.143 34.9018 30.17 34.8973 30.1984C34.8928 30.2269 34.8951 30.2559 34.9039 30.2833C34.9127 30.3107 34.9279 30.3357 34.9481 30.3561C35.2636 30.945 35.7677 31.4109 36.3796 31.6792L36.4329 31.6994L36.5872 31.76L36.6313 31.7747L36.7967 31.828C37.3419 31.9854 37.9069 32.064 38.4744 32.0614C39.0829 32.0671 39.6884 31.9753 40.2679 31.7894L40.3653 31.7582C40.451 31.7276 40.5343 31.6945 40.6152 31.659C41.7067 31.1702 42.3204 30.1779 42.3204 28.8714C42.3168 26.8923 41.0801 26.1297 39.4318 25.5215Z" fill="#000000"/>
</svg>