<svg xmlns="http://www.w3.org/2000/svg" width="149" height="32" viewBox="0 0 149 32" fill="none">
<path d="M59.7595 27.8776C61.0363 27.8776 63.2273 27.4525 64.9394 24.6669C63.9527 22.4678 63.2563 17.9963 63.1547 16.369C62.6469 8.0563 65.8244 0.227461 69.2922 0.00754962C71.8313 -0.153719 73.8772 2.27997 74.1093 6.22371C74.7332 16.5889 71.3235 20.9138 69.6114 24.6523C69.9016 26.1037 72.3247 28.5667 74.6171 28.5667C75.4587 28.5667 76.4889 28.1415 76.7355 27.7897C76.5614 27.1886 76.3873 26.4262 76.3873 25.2974C76.3873 19.3011 80.2178 14.2285 83.5259 14.2285C86.1666 14.2285 87.6901 17.7471 87.6901 20.0781C87.6901 22.8197 85.3976 25.0481 82.0024 27.2032C82.5973 27.8043 83.7 28.2295 84.6432 28.2295C89.4893 28.2295 92.0285 22.3066 93.9002 16.8967C94.2339 15.8705 94.8433 14.4044 96.0185 14.4044C98.0644 14.4044 98.9059 27.9656 102.301 27.9656C103.752 27.9656 104.927 24.9602 104.927 22.6584C104.927 20.9431 104.332 20.7672 104.332 18.2748C104.332 15.5333 105.783 13.2169 107.728 13.2169C108.917 13.2169 109.338 14.4191 109.338 15.8705C109.338 21.3683 105.435 31.5722 99.6604 31.5722C95.3221 31.5722 95.6558 24.0072 94.1468 24.0072C92.4492 24.0072 90.0697 31.6601 81.6542 31.6601C80.2903 31.6601 78.8539 30.9711 77.6641 29.593C75.6183 30.9711 73.9207 31.5722 71.9619 31.5722C68.8279 31.5722 67.464 28.3028 66.1872 28.3028C64.6492 28.3028 62.9661 31.6601 57.8588 31.6601C53.7816 31.6601 53.0997 26.1623 51.6633 26.1623C50.3864 26.1623 48.4277 31.6601 46.3093 31.6601C42.74 31.6601 41.971 22.1306 38.8369 22.1306C36.3703 22.1306 28.5933 31.8067 26.4749 31.5868C25.6334 31.4989 25.2706 30.8538 25.3577 29.9888C25.4738 28.8013 26.4894 25.6199 26.8957 24.1245C27.5776 21.5149 28.216 18.656 28.5643 17.7471C28.9125 16.8234 29.8556 16.1784 30.6101 16.237C30.9873 16.281 31.1034 16.9847 31.2195 17.5858C31.6403 19.7116 32.2497 21.8814 32.9171 21.8814C34.1069 21.8814 38.0534 14.2431 40.3459 14.2431C43.1462 14.2431 43.4945 26.265 47.3104 26.265C48.5873 26.265 49.5304 24.7256 50.3719 22.8343C50.459 19.653 51.3005 15.1081 53.8542 15.1081C55.6388 15.1081 56.4949 19.1398 55.2181 22.6584C55.2181 26.8514 57.9313 27.8923 59.716 27.8923L59.7595 27.8776ZM123.122 19.8142C123.122 17.6738 121.178 14.6683 118.29 14.6683C114.475 14.6683 110.731 18.8759 110.731 24.7109C110.731 29.9448 113.952 31.6601 117.173 31.6601C122.774 31.6601 126.184 27.0127 127.954 23.1569C128.81 25.7372 129.303 31.6601 131.436 31.6601C132.278 31.6601 132.887 31.235 133.903 28.9039C136.442 23.1569 138.908 16.5449 142.304 16.5449C143.566 16.5449 142.811 18.8613 145.873 18.8613C147.324 18.8613 148.339 17.6591 148.339 16.281C148.339 14.3018 146.555 12.7624 143.842 12.7624C135.861 12.7624 134.164 24.8722 132.887 24.8722C130.769 24.8722 131.436 15.1814 129.913 15.1814C128.549 15.1814 127.867 16.8088 127.707 17.5858C126.604 22.0427 123.47 28.4934 118.711 28.4934C117.609 28.4934 115.65 28.0682 115.65 26.9394C115.65 25.7372 123.122 25.5759 123.122 19.8142ZM71.3525 8.55477C71.2074 6.16507 70.6271 5.08017 69.3647 5.16814C67.6671 5.27076 66.8981 10.6513 67.2319 16.2956C67.4495 19.9902 68.0009 20.5473 68.5087 20.5179C69.4518 20.4593 71.6862 13.8766 71.367 8.55477H71.3525ZM57.5541 3.51147C57.467 2.13336 56.3643 1.19507 54.9279 1.19507C53.3173 1.19507 51.7793 2.91038 51.9534 5.05085C51.9534 6.341 52.882 7.63114 54.5071 7.63114C56.3788 7.63114 57.7282 5.49067 57.5541 3.51147ZM83.9612 21.0164C83.9612 19.565 83.1922 18.3482 82.2636 18.3482C81.4946 18.3482 79.71 19.2131 79.71 21.9547C79.71 24.0952 80.4644 25.1214 80.8127 25.5612C83.2648 24.7842 83.9612 22.7317 83.9612 21.0164ZM117.173 18.0989C118.958 18.0989 119.466 20.2394 119.045 21.5295C118.624 22.8197 117.086 24.2711 114.707 24.6963C114.199 23.4061 113.938 18.0989 117.173 18.0989ZM0.357964 19.477C0.270908 15.9585 0.445021 12.4399 1.89596 7.45521C2.66496 4.80162 3.3469 3.84867 5.71194 3.33554C7.58365 2.98368 7.40954 4.96288 6.98877 7.27928C6.06016 12.4252 5.62488 14.9175 5.97311 20.7525C6.30682 26.9247 9.12165 29.3291 12.1686 29.3291C16.7536 29.417 18.7994 25.5612 19.641 19.9755C20.3229 15.5186 19.8006 13.3635 19.3798 12C19.1331 11.223 18.4512 9.50772 18.19 8.23223C17.8563 4.96288 19.3798 3.42351 20.6566 2.99834C22.1801 2.57318 22.7895 3.3502 23.3699 5.13881C24.1389 7.88037 24.226 11.4869 23.9648 16.6328C23.6311 23.67 20.1488 32.1732 11.4867 31.9973C4.01434 31.8214 0.70619 26.9394 0.357964 19.477Z" fill="#FFFFFF"/>
</svg>