<?xml version="1.0" encoding="utf-8"?>
<!-- Generator: Adobe Illustrator 26.0.2, SVG Export Plug-In . SVG Version: 6.00 Build 0)  -->
<svg version="1.1" id="Layer_1" xmlns="http://www.w3.org/2000/svg" xmlns:xlink="http://www.w3.org/1999/xlink" x="0px" y="0px"
	 viewBox="0 0 200 200" style="enable-background:new 0 0 200 200;" xml:space="preserve">
<style type="text/css">
	.st0{fill:#FFFFFF;}
</style>
<path class="st0" d="M59.5,140L59.5,140c-2.4-2.4-2.4-6.3,0-8.7l71.8-71.8c2.4-2.4,6.3-2.4,8.7,0l0,0c2.4,2.4,2.4,6.3,0,8.7
	L68.2,140C65.8,142.5,61.9,142.5,59.5,140z"/>
<path class="st0" d="M59.5,59.5L59.5,59.5c2.4-2.4,6.3-2.4,8.7,0l71.8,71.8c2.4,2.4,2.4,6.3,0,8.7l0,0c-2.4,2.4-6.3,2.4-8.7,0
	L59.5,68.3C57,65.8,57,61.9,59.5,59.5z"/>
</svg>
