<svg width="68" height="36" viewBox="0 0 68 36" fill="none" xmlns="http://www.w3.org/2000/svg">
<path d="M11.6195 0.122672V0.846014L12.2942 1.00041C13.3312 1.25845 13.4874 1.87815 13.9017 3.83984L14.9813 9.3548L11.9722 25.464L7.87419 5.22308C7.40669 3.00229 7.25156 1.35045 8.91225 0.988778L9.69 0.834381V0.122672H0V0.846014L0.986 1.1051C1.972 1.36314 2.38637 1.82739 3.06106 4.8741L9.64856 35.9048H11.3486L15.7579 12.4639L20.6454 35.9048H21.9948L28.3241 5.83326C29.0509 2.37518 29.3622 1.39169 30.6085 1.07444L31.5934 0.815346V0.122672H24.4747V0.846014L25.5637 1.05223C27.1203 1.36208 27.4826 2.3424 26.7559 6.31866L22.8756 25.464L18.9444 5.22308C18.5194 3.20956 18.2697 1.35045 19.9824 1.0406L21.1236 0.834381V0.111039L11.6195 0.122672ZM57.7788 0.219964V0.943306L59.075 1.25316C60.2151 1.51119 60.6826 1.92468 60.6826 3.37031V28.4123C60.6826 31.1999 60.6826 34.8663 57.7766 34.8663C56.117 34.8663 54.8229 33.4207 54.9249 32.4393C55.0279 30.8393 57.8298 30.9419 57.9849 28.3605C58.1411 26.5627 56.9989 25.7167 55.8577 25.5718C54.2502 25.3656 52.2793 26.7076 52.2261 29.3926C52.1751 32.8507 54.4574 36 58.3461 36C62.6493 36 65.4649 33.1109 65.4649 27.5853L65.4659 3.42107C65.4659 1.97544 65.8293 1.51013 66.8663 1.25316L68 0.931672V0.20833L57.7788 0.219964ZM40.3006 0C35.8913 0 33.4018 3.66641 33.4018 8.46754C33.4018 17.4004 44.9703 20.8595 44.9703 28.9146C44.9703 32.7354 43.3617 34.8515 41.0391 34.8515C37.5647 34.8515 35.0731 30.6712 34.4516 24.0099H33.6738V35.7822H34.2964C34.8149 34.0901 35.4896 33.9241 36.0602 33.9241C37.0462 33.9241 38.0821 35.9863 41.0911 35.9863C45.7077 35.9863 48.7156 32.0121 48.7178 26.5363C48.7178 15.7972 37.1493 13.164 37.1493 5.47054C37.1493 3.71506 37.6678 1.13471 40.2624 1.13471C43.9981 1.13471 45.6068 6.03948 46.2283 11.9774H47.0061V0.207273H46.3834C46.1242 1.34305 45.6578 1.85912 44.9831 1.85912C43.7899 1.85912 43.1768 0.00105694 40.3144 0.00105694L40.3006 0ZM48.6519 10.1257V10.2526L48.6763 10.2378L48.6636 10.1321L48.6519 10.1257Z" fill="white"/>
</svg>
